<svg width="157" height="64" viewBox="0 0 157 64" fill="none" xmlns="http://www.w3.org/2000/svg">
<g clip-path="url(#clip0_1757_2281)">
<path d="M25.5005 25.5332L20.854 27.8126L23.7035 28.8882C24.2939 29.1187 24.987 29.4005 25.2437 30.092C25.5005 30.7835 25.1154 31.4237 24.7817 31.9616L23.2157 34.3946C21.3674 37.2631 19.5448 40.1315 17.6965 43C17.6965 42.1036 17.6965 41.2328 17.6965 40.3364C18.3896 38.1083 19.0827 35.9057 19.7502 33.6775C19.9299 33.0373 20.1352 32.4226 20.3149 31.7823C20.4176 31.3981 20.3663 31.1676 19.9812 30.9884L17.1574 29.6053L14.3336 30.9884C13.9742 31.1676 13.8972 31.3981 13.9999 31.7823C14.1796 32.4226 14.3593 33.0373 14.5646 33.6775C15.2321 35.9057 15.9252 38.1339 16.6183 40.3364C16.6183 41.2328 16.6183 42.1036 16.6183 43C14.77 40.1315 12.9217 37.2631 11.0991 34.3946L9.53312 31.9616C9.1994 31.4237 8.81434 30.7835 9.07105 30.092C9.32776 29.3749 10.0209 29.1187 10.6113 28.8882L13.4608 27.8126L8.81434 25.5332L10.2776 27.9662L7.86451 28.8882C6.17023 26.2503 4.50162 23.638 2.83301 21C7.6078 22.6903 12.3826 24.4063 17.1831 26.0198C21.9835 24.3807 26.7583 22.6903 31.5331 21C29.8645 23.638 28.1702 26.2503 26.5016 28.8882L24.0885 27.9662L25.5005 25.5332ZM116.761 29.0163V31.5006H130.187C130.469 31.5006 130.7 31.2957 130.7 31.014V29.4773C130.7 29.1956 130.469 28.9907 130.187 28.9907L116.761 29.0163ZM113.398 37.2887V26.6857H130.777C132.394 26.6857 133.703 27.6845 133.703 29.17V31.3725C133.703 32.9092 132.677 33.9336 131.65 33.9336L133.96 37.2887H130.187L128.184 34.0617H116.761V37.2887H113.398ZM64.4946 37.2887H47.0897C45.4724 37.2887 44.1632 36.085 44.1632 34.5739V29.3749C44.1632 27.8894 45.4724 26.6601 47.0897 26.6601H64.4946V29.5541H47.6801C47.3978 29.5285 47.1667 29.759 47.1667 30.0151C47.1667 30.0151 47.1667 30.0151 47.1667 30.0407V33.8824C47.1667 34.1641 47.3978 34.369 47.6801 34.369H64.4946V37.2887ZM87.5728 26.6857V34.5995C87.5728 36.085 86.2636 37.3143 84.6463 37.3143H70.1422C68.5249 37.3143 67.2157 36.1106 67.2157 34.5995V26.6857H70.707V33.908C70.707 34.1898 70.938 34.3946 71.2204 34.3946H83.5424C83.8248 34.3946 84.0559 34.1898 84.0559 33.908V26.6857H87.5728ZM153.547 31.5006V29.0163H140.275C139.993 29.0163 139.762 29.2212 139.762 29.5029V31.5006C139.736 31.4494 148.798 31.475 153.547 31.5006ZM156.833 37.2887H153.547V34.0617H139.762V37.2887H136.476L136.45 29.3749C136.45 27.8894 137.759 26.6601 139.377 26.6601H156.782C156.807 26.6857 156.833 26.6601 156.833 26.6601V37.2887ZM93.5798 31.5006H107.16C107.442 31.5006 107.673 31.2957 107.673 31.014V29.4773C107.673 29.1956 107.442 28.9907 107.16 28.9907H93.5798V31.5006ZM107.724 26.6857C109.881 26.6857 110.651 27.6845 110.651 29.17V31.3725C110.651 32.858 109.984 34.0873 107.724 34.0873H93.5541V37.3143H90.2682V26.7113H107.724V26.6857Z" fill="#B9ADC9"/>
</g>
<defs>
<clipPath id="clip0_1757_2281">
<rect width="156" height="64" fill="white" transform="translate(0.833008)"/>
</clipPath>
</defs>
</svg>
