<svg width="117" height="64" viewBox="0 0 117 64" fill="none" xmlns="http://www.w3.org/2000/svg">
<path d="M53.2341 42.7977C53.2976 42.8064 53.3114 42.8089 53.3733 42.8169C54.4078 42.9569 55.4244 43.1425 56.2025 43.4888C56.9236 43.8058 57.3464 44.207 57.7323 44.922C58.3192 46.0064 58.3574 47.5255 57.8271 48.6753C57.4309 49.5308 56.5612 50.2482 55.7673 50.6284C54.9427 51.0264 54.1304 51.2159 53.1987 51.3217C51.5692 51.5004 49.8093 51.1643 48.343 50.4582C47.4755 50.0365 46.4162 49.3102 45.8818 48.3745C45.4888 47.689 45.5013 46.7972 45.9794 46.1457C46.7415 45.1073 48.3736 44.8787 49.603 44.922C50.5402 44.9582 52.2277 45.2466 53.1176 45.5618C53.3642 45.6505 54.2739 46.0033 54.4326 46.1651C54.5444 46.2776 54.6168 46.4412 54.5667 46.5924C54.3633 47.2115 52.8521 47.5379 52.4157 47.6034C51.2475 47.7816 50.6414 47.3414 49.3133 46.8194C48.9836 46.6908 48.5442 46.5482 48.2086 46.5173C47.6056 46.4602 46.8774 46.6283 46.7623 47.2835C46.705 47.6212 47.1028 47.9371 47.4062 48.0699C48.1186 48.3745 48.6978 48.4841 49.3989 48.4934C51.4703 48.5274 53.7981 48.1879 55.4923 46.9928C55.7242 46.828 55.952 46.5869 55.9544 46.2828C55.9617 45.6688 54.8805 45.2934 54.8805 45.2934C53.7393 44.8197 51.6306 44.5891 50.5443 44.5001C49.4043 44.4018 47.6107 44.2549 47.18 44.1917C46.7366 44.1287 46.255 44.0397 45.871 43.8683C45.4853 43.6949 45.1079 43.3066 44.9959 42.8771C44.7973 42.1028 45.0507 41.1527 45.4826 40.5341C46.6146 38.9139 49.2664 38.2985 51.2474 38.0541C53.1648 37.8166 56.2645 37.819 58.1478 38.8153C58.4385 38.9705 58.5871 39.1148 58.5263 39.4243C58.4036 40.0052 57.965 40.3796 57.4334 40.5437C56.8757 40.7204 55.7221 40.7893 55.2154 40.821C52.9449 40.9478 50.2012 40.8813 48.0386 41.4684C47.8691 41.5166 47.5764 41.5951 47.4813 41.7009C47.1428 42.0667 48.1097 42.1713 48.3168 42.2131C48.3783 42.2278 48.3903 42.2298 48.4545 42.2368L53.2341 42.7977ZM39.7268 32.7185C39.7268 32.7185 40.0961 32.1671 40.4055 31.7488C40.969 30.9869 41.9887 29.9304 42.7566 29.2763C42.9915 29.0765 43.2684 28.8502 43.2684 28.8502C43.2684 28.8502 42.8352 28.8948 42.5898 28.9447C42.0072 29.0576 41.1529 29.6229 40.726 29.9881C40.0217 30.5884 39.2471 31.5642 39.5976 32.4313C39.6484 32.5538 39.7268 32.7185 39.7268 32.7185ZM43.6424 33.7617C44.7552 33.6853 45.7975 33.3664 46.7679 32.8305C47.7196 32.3003 49.1194 31.2665 48.9742 30.0513C48.9301 29.6579 48.6714 29.3609 48.3448 29.2223C47.9204 29.0392 47.699 29.0687 47.1568 29.2291C46.7629 29.3438 46.5855 29.4135 46.2135 29.6254C45.1219 30.2568 43.5742 31.608 42.7339 32.6864C42.54 32.9407 42.3436 33.2252 42.1899 33.4201C42.093 33.5403 42.0176 33.6507 42.027 33.6801C42.0606 33.8023 43.2079 33.7911 43.6424 33.7617ZM40.8093 35.8334C40.6946 35.9543 40.5731 36.2457 40.4472 36.4567C40.3799 36.5696 40.2553 36.7149 40.1728 36.7732C39.8832 36.9852 39.6379 36.9951 39.3583 36.7501C38.9662 36.4049 38.7395 35.8709 38.7234 35.3515C38.715 35.1249 38.7541 34.8741 38.711 34.683C38.6397 34.3604 38.3154 34.0281 38.1406 33.7196C37.9353 33.3563 37.7692 32.7228 37.7485 32.3137C37.6781 31.0383 38.3534 29.8634 39.2307 28.9367C40.1141 27.9997 41.2699 27.2209 42.5269 26.6907C43.7151 26.1925 45.4563 25.8528 46.7611 26.3027C47.1859 26.4476 47.7777 26.8075 48.0751 27.1845C48.1383 27.2627 48.1897 27.3474 48.2545 27.3888C48.3125 27.4256 48.4643 27.4401 48.585 27.4622C49.0012 27.534 49.6003 27.8477 49.8451 28.0566C50.3368 28.4789 50.6062 28.8826 50.7309 29.4685C50.9808 30.6473 50.2989 31.9406 49.5223 32.7277C48.1925 34.0824 46.8792 35.0349 45.178 35.6979C44.4308 35.9885 43.267 36.26 42.4193 36.1841C42.156 36.1623 41.8856 36.0933 41.6292 36.0763C41.4984 36.0651 41.0201 35.9423 40.969 35.9076C40.9056 35.8592 40.8237 35.817 40.8093 35.8334ZM42.3287 38.447C42.3805 38.4557 42.4603 38.4788 42.529 38.5051C43.1254 38.7309 43.3708 39.2804 43.5177 39.884C43.8581 41.2856 44.0035 44.3863 44.0601 45.6C44.1017 46.5109 44.1245 47.4072 44.1629 48.3076C44.1954 49.0702 44.2565 50.0839 44.0968 50.7983C44.0388 51.0553 43.8662 51.3541 43.619 51.5071C43.3358 51.6876 42.6913 51.7013 42.3371 51.6286C41.4638 51.4488 41.1801 50.8898 41.0555 50.0301C40.7592 47.9786 40.9019 43.9524 41.0767 42.2535C41.1348 41.6923 41.3471 39.8944 41.6414 39.1406C41.7419 38.8863 41.9559 38.3744 42.3287 38.447ZM15.7637 41.8602C15.7637 41.8602 14.4641 41.9518 13.5696 42.0506C12.4316 42.1726 10.2933 42.5402 9.05906 42.979C8.68884 43.111 7.9368 43.4243 7.87144 43.8033C7.80275 44.1961 8.04765 44.5033 8.32 44.8211C8.47749 45.0056 9.36887 45.8593 9.61882 46.0668C10.6665 46.9376 12.791 48.2806 14.3558 48.9328C14.8934 49.1542 15.7827 49.4712 15.7827 49.4712C15.7827 49.4712 15.7166 46.9503 15.7284 44.4671C15.7353 43.1572 15.7637 41.8602 15.7637 41.8602ZM39.5937 42.8635C39.6681 43.5407 39.4933 44.8212 39.4629 44.9901C39.4076 45.3794 39.1127 46.2773 39.0638 46.3869C38.8258 46.9326 38.5911 47.3797 38.3424 47.8257C37.9162 48.5893 36.9029 49.7998 36.3013 50.3178C34.0642 52.2428 30.6012 53.3388 27.6302 53.6998C25.6143 53.9423 23.2978 53.9067 21.1617 53.5132C20.4266 53.3801 19.3326 53.1291 19.3326 53.1291C19.3326 53.1291 19.3361 53.5645 19.3011 53.8708C19.2841 54.0105 19.1784 54.3783 19.1191 54.4975C18.9638 54.8169 18.7088 54.9817 18.338 55.0526C17.8905 55.1352 17.4159 55.1628 17.0023 54.9868C16.3234 54.7024 16.0796 54.07 15.9613 53.3406C15.8656 52.7573 15.7654 51.7433 15.7654 51.7433C15.7654 51.7433 15.2575 51.5038 14.834 51.2934C13.5331 50.6553 12.2976 49.8821 11.2166 49.087C10.9172 48.8644 9.63065 47.7917 9.34669 47.5254C8.55043 46.7728 7.83411 46.0241 7.28917 45.0634C6.86553 44.3129 6.74354 43.6467 7.06575 42.8515C7.51006 41.743 9.10639 40.9084 10.1989 40.4328C11.0008 40.0803 13.4943 39.2698 14.53 39.1195C15.0192 39.0499 15.7781 38.9146 15.8247 38.8844C15.8438 38.8699 15.857 38.8575 15.8708 38.8418C15.8947 38.8083 15.935 37.7111 15.9272 37.3097C15.9171 36.915 16.2205 34.323 16.3181 33.7749C16.369 33.4785 16.5944 32.3374 16.8246 32.0379C16.9752 31.8355 17.2415 31.8518 17.4586 31.9847C18.6466 32.7201 19.0075 35.2707 19.0958 36.5684C19.1487 37.3591 19.175 38.5484 19.175 38.5484C19.175 38.5484 20.5378 38.5083 21.3761 38.5319C22.1907 38.5508 23.0886 38.6788 23.9342 38.8129C25.0167 38.9857 27.1267 39.4439 28.3369 40.0547C29.3334 40.5577 30.2661 41.4051 30.5683 42.3019C30.8491 43.124 30.807 43.6929 30.3794 44.4349C29.8985 45.2727 28.989 45.8953 28.0668 45.9474C27.7924 45.9632 26.7595 45.8265 26.4417 45.5815C26.317 45.4839 26.3235 45.3077 26.4134 45.1882C26.4475 45.1462 26.9303 44.8906 27.2153 44.7415C27.3499 44.6698 27.4751 44.5819 27.5879 44.4796C27.8247 44.272 28.0378 44.0435 28.014 43.7757C27.9812 43.4281 27.6117 43.2136 27.2595 43.0757C25.607 42.4222 22.3077 41.8797 20.7133 41.7858C20.0892 41.7493 19.2015 41.7181 19.2015 41.7181L19.3892 50.4832C19.3892 50.4832 20.1231 50.6223 20.7015 50.7157C21.0333 50.7657 22.4394 50.8918 22.8131 50.9009C25.6581 50.9757 28.8336 50.7221 31.4445 49.4954C32.5908 48.9584 33.6424 48.2898 34.4386 47.3846C35.4879 46.187 36.0374 44.5479 35.892 42.8358C35.7326 40.9661 34.4108 38.7465 33.3553 37.395C30.5664 33.8244 25.7859 30.8872 21.5801 29.1652C17.2863 27.4083 13.0426 26.3976 8.48564 26.2284C7.31088 26.185 4.74943 26.244 3.45463 26.6006C3.26969 26.6525 3.08326 26.7145 2.91153 26.7529C2.77587 26.786 2.5621 26.8754 2.5034 26.9226C2.48039 26.9419 2.45878 26.9628 2.43873 26.9851C2.43873 26.9851 2.51856 27.029 2.59484 27.0611C2.73199 27.1207 3.30932 27.1564 3.60809 27.2108C3.87539 27.2609 4.15372 27.4007 4.26388 27.5956C4.36852 27.781 4.38162 27.9272 4.25653 28.0818C3.96315 28.437 2.85892 28.3771 2.37268 28.3004C1.86737 28.2203 1.23824 28.0663 1.12268 27.6283C0.98863 27.1125 1.23479 26.6068 1.50071 26.1393C2.03497 25.204 2.80022 24.7175 3.92088 24.4128C5.51261 23.9768 7.52247 23.6719 9.02552 23.6147C12.4275 23.4868 15.6472 24.079 18.9434 25.0753C20.8299 25.6432 23.2997 26.5962 25.1078 27.4629C26.4052 28.0857 28.4494 29.231 29.5978 29.9794C29.96 30.2174 32.0794 31.7678 32.4086 32.0403C33.0954 32.5993 33.9937 33.4027 34.6442 34.0453C35.9027 35.2869 37.468 37.1901 38.2284 38.7006C38.4114 39.0623 38.5532 39.4182 38.7892 39.8374C38.8704 39.9811 39.2178 40.8401 39.2756 41.0883C39.3328 41.3338 39.4166 41.6947 39.4285 41.709C39.4452 41.8409 39.6063 42.579 39.5937 42.8635ZM82.3619 40.9255C80.7687 41.2912 76.5794 41.4943 76.5794 41.4943L76.0511 43.1417C76.0511 43.1417 78.1447 42.9638 79.6677 43.1222C79.6677 43.1222 80.1612 43.0651 80.2192 43.6799C80.2389 44.2533 80.1703 44.8685 80.1703 44.8685C80.1703 44.8685 80.1387 45.2408 79.6088 45.3354C79.0346 45.4307 75.0963 45.5823 75.0963 45.5823L74.4586 47.7298C74.4586 47.7298 74.2216 48.2262 74.7527 48.0845C75.2462 47.953 79.3727 47.1821 79.9102 47.293C80.4862 47.4354 81.1236 48.1999 80.9393 48.8966C80.7197 49.7601 76.6011 52.3751 74.0929 52.1926C74.0929 52.1926 72.7749 52.2772 71.6609 50.5064C70.6234 48.8189 72.0541 45.6237 72.0541 45.6237C72.0541 45.6237 71.3983 44.1322 71.8736 43.6266C71.8736 43.6266 72.1564 43.3711 72.9808 43.3134L73.9902 41.2342C73.9902 41.2342 72.8404 41.313 72.1564 40.4709C71.5192 39.672 71.4658 39.3048 71.9543 39.0842C72.4767 38.8273 77.2651 37.9573 80.5601 38.0676C80.5601 38.0676 81.7053 37.9557 82.6984 39.9332C82.6987 39.9333 83.1797 40.733 82.3619 40.9255ZM69.9686 48.9198C69.5463 49.9086 68.4308 50.9639 67.0451 50.308C65.6771 49.6506 63.4981 45.2108 63.4981 45.2108C63.4981 45.2108 62.671 43.5552 62.5119 43.5979C62.5119 43.5979 62.3331 43.2746 62.2236 45.0837C62.1096 46.8852 62.2455 50.398 61.5237 50.9509C60.8399 51.5053 60.0119 51.2846 59.5825 50.6369C59.1922 49.9987 59.0298 48.4825 59.2427 45.8194C59.493 43.1512 60.1156 40.3124 60.9111 39.4284C61.7054 38.5503 62.3431 39.1878 62.5917 39.419C62.5917 39.419 63.6543 40.3778 65.4065 43.1932L65.7157 43.714C65.7157 43.714 67.308 46.3738 67.4743 46.3676C67.4743 46.3676 67.6045 46.4899 67.7205 46.4021C67.8876 46.3545 67.8202 45.5016 67.8202 45.5016C67.8202 45.5016 67.4898 42.6029 66.0372 37.6964C66.0372 37.6964 65.8176 37.0846 65.9661 36.5113C66.1136 35.932 66.6969 36.204 66.6969 36.204C66.6969 36.204 68.9483 37.3309 70.0412 40.9802C71.1268 44.6307 70.3973 47.9235 69.9686 48.9198ZM94.1995 46.7342C93.1747 48.5144 90.2814 52.242 86.4362 51.3619C85.1665 54.4274 84.0998 57.5284 83.4899 62.1686C83.4899 62.1686 83.3558 63.0703 82.6031 62.7571C81.8571 62.4972 80.6284 61.2624 80.3798 59.5543C80.1124 57.3105 81.1158 53.5173 83.1665 49.1679C82.5684 48.1999 82.1606 46.8168 82.5097 44.8475C82.5097 44.8475 83.0248 41.1904 86.714 37.8943C86.714 37.8943 87.1562 37.514 87.4126 37.6311C87.6951 37.749 87.5643 38.9391 87.3401 39.5177C87.1073 40.093 85.4649 42.9237 85.4649 42.9237C85.4649 42.9237 84.4404 44.8362 84.7287 46.3445C86.6636 43.383 91.0619 37.411 93.7881 39.2942C94.7038 39.9465 95.1259 41.3654 95.1259 42.8942C95.1265 44.2372 94.8012 45.6645 94.1995 46.7342ZM93.4039 42.0439C93.4039 42.0439 93.2522 40.8664 92.0959 42.1636C91.1014 43.2582 89.3076 45.3091 87.8636 48.0948C89.3787 47.9254 90.8401 47.1071 91.282 46.6902C92.0004 46.0557 93.6739 44.334 93.4039 42.0439ZM115.381 41.7758H108.334C108.194 39.3913 107.905 37.0686 107.45 34.6765C107.428 34.5567 107.364 34.4484 107.27 34.3704C107.176 34.2924 107.058 34.2496 106.935 34.2493H105.311C105.241 34.2495 105.171 34.2652 105.108 34.2952C105.044 34.3252 104.988 34.3688 104.944 34.4229C104.899 34.4773 104.867 34.5408 104.849 34.609C104.832 34.6773 104.83 34.7485 104.843 34.8176C105.305 37.1324 105.597 39.4108 105.741 41.7781H98.9616C98.6457 41.7781 98.3891 42.0328 98.3891 42.346V43.8048C98.3893 43.9559 98.4497 44.1008 98.557 44.2077C98.6643 44.3147 98.8098 44.3749 98.9616 44.3752H105.838C105.843 44.7352 105.846 45.0576 105.846 45.36C105.846 47.4624 105.755 49.1942 105.542 51.1486C105.534 51.223 105.542 51.2983 105.565 51.3694C105.589 51.4405 105.627 51.5058 105.678 51.5609C105.727 51.616 105.788 51.6601 105.855 51.6903C105.923 51.7206 105.996 51.7362 106.07 51.7363H107.577C107.719 51.7365 107.855 51.6842 107.96 51.5896C108.065 51.495 108.131 51.3648 108.144 51.2245C108.35 49.2569 108.439 47.5036 108.439 45.3599C108.439 45.0586 108.435 44.7351 108.431 44.3751H115.382C115.697 44.3751 115.954 44.1186 115.954 43.8046V42.3459C115.954 42.1948 115.893 42.05 115.786 41.9431C115.679 41.8362 115.533 41.7761 115.381 41.7758Z" fill="#B9ADC9"/>
<path d="M21.1539 22.2283C21.1047 22.3007 21.0731 22.3835 21.0616 22.4702C21.05 22.5568 21.0588 22.6449 21.0873 22.7276C21.1159 22.8103 21.163 22.8855 21.225 22.9475C21.2871 23.0095 21.3624 23.0567 21.4454 23.0854L22.7086 23.5087C22.7819 23.5321 22.8584 23.5444 22.9354 23.5449C23.0508 23.5451 23.1644 23.517 23.2662 23.4631C23.3681 23.4092 23.455 23.3311 23.5194 23.2358C27.6572 17.1841 33.2573 12.1454 39.7152 8.66431C46.3821 5.07003 53.9358 3.16883 61.5618 3.16883C70.7729 3.16883 79.6602 5.87385 87.2637 10.9909C94.6827 15.9822 100.445 22.9459 103.926 31.1295C103.977 31.249 104.062 31.351 104.171 31.4227C104.279 31.4943 104.407 31.5325 104.537 31.5324H106.046C106.132 31.5321 106.216 31.5108 106.292 31.4704C106.368 31.43 106.433 31.3717 106.481 31.3006C106.53 31.2295 106.56 31.1475 106.569 31.0621C106.578 30.9766 106.565 30.8903 106.533 30.8107C102.943 22.0116 96.8713 14.5107 88.9731 9.12185C80.8877 3.60487 71.409 0.688171 61.5618 0.688171C45.2825 0.688171 30.1763 8.74081 21.1539 22.2283Z" fill="#B9ADC9"/>
</svg>
