<svg width="80" height="64" viewBox="0 0 80 64" fill="none" xmlns="http://www.w3.org/2000/svg">
<g clip-path="url(#clip0_1757_2278)">
<path fill-rule="evenodd" clip-rule="evenodd" d="M9.0577 0.00717956C9.0577 0.0349804 9.35963 0.74091 9.72861 1.5759C10.0977 2.4109 10.5282 3.39105 10.6855 3.75396C10.8428 4.11686 11.0755 4.6391 11.2025 4.91446C11.3295 5.18983 11.4684 5.50655 11.511 5.61828C11.5537 5.73001 12.2803 7.38522 13.1259 9.29653C13.9713 11.2078 15.0816 13.7218 15.5932 14.8831C16.1047 16.0444 16.881 17.8057 17.3181 18.797C17.7554 19.7884 18.1543 20.6132 18.2047 20.63C18.255 20.6468 18.0746 20.0209 17.8037 19.239C17.5328 18.4571 17.3281 17.8005 17.3487 17.7798C17.393 17.7356 18.323 19.5908 19.0784 21.2303C19.4188 21.969 19.6312 22.5571 19.6665 22.8579C19.7249 23.3559 19.6148 23.9232 19.4037 24.2114C19.2823 24.3771 19.2446 24.3536 18.5441 23.6774C17.651 22.8152 17.2543 22.5034 16.5253 22.091C15.3439 21.4226 14.1815 21.0671 12.6774 20.9142C11.444 20.7887 3.93249 20.7922 3.47809 20.9183C3.02562 21.044 2.67574 21.4048 2.54043 21.8854C2.45755 22.1799 2.42764 24.2839 2.41603 30.631C2.40767 35.2278 2.42676 39.5449 2.45843 40.2244C2.52433 41.6386 2.61345 41.8779 3.19929 42.2138L3.55912 42.42L7.65006 42.4467C11.9849 42.475 12.5957 42.4388 14.0125 42.069C15.6342 41.6459 17.0061 40.9246 18.2694 39.8312C18.948 39.2438 19.1751 39.1072 19.1751 39.2862C19.1751 39.3288 19.5108 39.7031 19.9211 40.1181C21.1528 41.3638 22.4302 42.1158 24.1371 42.6002C24.8768 42.8102 25.0458 42.8958 25.4143 43.2469C25.8031 43.6176 25.8691 43.7442 26.1983 44.7514C26.396 45.3562 26.7015 46.346 26.8772 46.9508C27.5738 49.3486 27.7942 50.1057 28.0146 50.858C28.1409 51.2891 28.2313 51.7048 28.2156 51.7817C28.1988 51.8638 28.0264 51.6527 27.7983 51.2708C27.5845 50.9129 27.3952 50.6631 27.3777 50.7156C27.3313 50.8549 29.2941 56.7711 30.1713 59.1357C30.8595 60.991 30.9754 61.3739 31.0272 61.9645C31.0905 62.6848 31.0151 63.0314 30.6877 63.5257C30.3738 63.9995 30.4142 64.1527 30.767 63.8271C30.8996 63.7048 31.6415 63.0505 32.4157 62.373C33.1899 61.6956 34.3776 60.6542 35.055 60.0589C35.7324 59.4636 36.3562 58.9169 36.4412 58.844C36.7207 58.6043 36.6958 58.7977 36.3707 59.389C36.1946 59.7094 36.088 59.9714 36.1337 59.9714C36.1794 59.9714 36.5493 59.6626 36.9556 59.285C37.7452 58.5512 42.7446 53.9629 44.2026 52.6337C45.2635 51.6666 46.1934 50.8098 47.0224 50.0356C48.7317 48.4391 51.4825 45.9356 51.5557 45.9098C51.729 45.8485 51.6275 46.1105 51.3436 46.4579C50.7865 47.1393 50.1413 48.0341 50.1796 48.0723C50.2006 48.0935 50.275 48.0774 50.3447 48.0366C50.4417 47.98 53.6313 45.1793 54.1381 44.7057C55.1617 43.7493 56.7808 42.3719 56.8968 42.3587C56.9807 42.3493 58.3954 42.3394 60.0405 42.3368C61.6857 42.3342 63.4283 42.297 63.9129 42.2541L64.7941 42.1763L65.311 42.4521L65.8279 42.7279L69.1806 42.7265C73.9641 42.7246 75.0149 42.6133 76.2823 41.9751C76.9709 41.6284 77.8932 40.8039 78.2976 40.1738C78.8972 39.2394 79.4395 37.2791 79.4395 36.0461C79.4395 35.3602 79.2494 34.3043 79.0325 33.7851C78.8476 33.3427 78.3387 32.5519 77.9854 32.1584C77.5435 31.6661 77.5414 31.5711 77.9499 30.6129C79.421 27.1628 79.6431 26.5077 79.5966 25.759C79.5648 25.2472 79.5339 25.1725 79.245 24.9077C79.0708 24.7481 78.7761 24.5752 78.59 24.5235C78.374 24.4635 76.8522 24.4294 74.3773 24.4291C70.157 24.4286 70.0012 24.4433 68.9262 24.9463C68.2201 25.2766 67.1685 26.1263 67.0278 26.4801C66.9665 26.634 66.9044 26.7756 66.8897 26.7945C66.8751 26.8135 66.6542 26.6524 66.399 26.4366C65.4473 25.6316 64.5757 25.1362 63.4716 24.7725C62.8947 24.5826 62.7073 24.569 60.5043 24.5593L58.1527 24.5488L56.4133 23.6674C51.0247 20.9372 47.9653 19.3767 47.7943 19.2712C47.6879 19.2056 47.5824 19.1818 47.5598 19.2184C47.5373 19.2549 49.612 20.5115 52.1704 22.0107C54.7288 23.5099 56.8838 24.781 56.9592 24.8353C57.0346 24.8897 57.0732 24.9944 57.0449 25.0681C56.9748 25.2509 56.3824 25.178 55.8616 24.9224C55.4832 24.7368 50.5376 21.9104 49.5272 21.3023C49.2611 21.1422 47.3806 20.0527 45.3483 18.8813C43.3161 17.7098 41.0198 16.3858 40.2456 15.939C38.6348 15.0094 38.0893 14.7227 38.0349 14.7772C38.0137 14.7982 38.7302 15.3986 39.627 16.1113C40.5237 16.824 41.2343 17.4446 41.2061 17.4902C41.1523 17.5773 41.0992 17.5499 39.3219 16.5164C37.6017 15.516 33.5141 13.1641 33.0755 12.9223C32.8578 12.8023 32.64 12.6751 32.5916 12.6397C32.5432 12.6042 31.6921 12.1086 30.7001 11.5384C26.0328 8.85532 26.2603 8.98649 22.6502 6.89721C22.0695 6.56114 20.5453 5.68189 19.2631 4.94332C17.9808 4.20484 16.7221 3.47674 16.4659 3.32533C15.5202 2.76659 15.7154 2.9926 17.3276 4.32361C18.9599 5.67125 18.9593 5.67063 18.8893 5.74057C18.8589 5.77101 17.7528 5.15156 16.4312 4.36399C13.4367 2.57937 9.72289 0.361112 9.34362 0.130436C9.18641 0.0348044 9.0577 -0.0206213 9.0577 0.00717956ZM15.7352 6.40568C16.49 6.79955 18.1963 7.70458 19.527 8.41684C20.8577 9.1291 23.2132 10.3862 24.7616 11.2105C26.31 12.0347 28.7646 13.3413 30.2162 14.114C31.6679 14.8866 33.8453 16.0436 35.055 16.6849C36.2647 17.3262 37.5315 18.0005 37.8703 18.1832C38.7997 18.6845 39.2849 18.9431 41.3234 20.0239C42.9358 20.8787 43.3994 21.1735 43.1316 21.1735C43.098 21.1735 42.1775 20.839 41.0862 20.4301C38.6469 19.5161 35.531 18.3598 31.7118 16.9511C30.1151 16.3621 28.2741 15.6821 27.6209 15.4399C24.7442 14.3735 22.5822 13.5707 21.7227 13.2499C20.7 12.8681 20.5983 12.8487 20.5313 13.0231C20.5062 13.0888 20.7277 14.2665 21.0237 15.6404C21.3196 17.0142 21.7345 18.9498 21.9456 19.9418C22.1566 20.9337 22.4053 22.0932 22.4983 22.5183C22.5912 22.9434 22.6325 23.3126 22.5901 23.3388C22.5477 23.3651 22.3732 23.0839 22.2024 22.714C22.0315 22.3443 21.4154 21.0447 20.8334 19.826C20.2513 18.6074 19.3261 16.6602 18.7773 15.4989C18.2284 14.3376 16.9688 11.6854 15.978 9.60497C14.9872 7.52466 14.195 5.79257 14.2177 5.75597C14.2835 5.64943 14.2977 5.6555 15.7352 6.40568ZM11.1252 23.1101C14.4686 23.3037 15.8043 23.7831 17.2904 25.323C18.2361 26.3028 18.8035 27.3894 19.1434 28.8715C19.3697 29.8581 19.3744 33.6698 19.1504 34.5662C18.5165 37.1038 16.4777 39.0583 13.6395 39.8495C13.0166 40.023 12.7162 40.0375 9.07969 40.0677L5.1867 40.1001V31.5605V23.021L7.40812 23.0222C8.62995 23.0229 10.3026 23.0624 11.1252 23.1101ZM49.4228 24.4822C50.1392 24.757 50.7895 25.0873 50.9054 25.2355C50.9556 25.2998 51.07 25.5701 51.1596 25.8363C51.2491 26.1024 51.3559 26.3597 51.3969 26.4081C51.4379 26.4565 51.8753 26.5159 52.3688 26.5401L53.2663 26.5841L53.2904 28.0577L53.3145 29.5313H52.2695H51.2244L51.1633 31.1809C51.1056 32.7363 51.1503 35.0302 51.2508 35.6718C51.2835 35.8796 51.4569 36.1198 51.8634 36.5205C52.1753 36.8278 52.4292 37.113 52.4276 37.1543C52.426 37.1955 51.7693 37.6993 50.9681 38.2737C49.5639 39.2805 49.5033 39.3138 49.283 39.1975C48.8778 38.9836 48.2317 38.2638 47.9743 37.7397L47.7237 37.2293L47.6966 33.434L47.6696 29.6387L47.1028 29.578L46.536 29.5173V28.0786C46.536 26.4663 46.4721 26.6054 47.2618 26.4981L47.6797 26.4413V25.1278V23.8143L48.2736 24.0418C48.6001 24.1669 49.1174 24.3651 49.4228 24.4822ZM44.1606 24.7337C44.8139 25.0064 45.3792 25.2602 45.417 25.2979C45.4731 25.354 43.0436 26.3645 42.3351 26.5798L42.1372 26.6399V25.2716V23.9033L42.555 24.0707C42.7849 24.1628 43.5074 24.4612 44.1606 24.7337ZM22.7359 26.0886C23.1141 26.4929 23.8648 26.9824 23.9603 26.8869C23.9844 26.8629 24.0512 26.6463 24.1089 26.4056C24.1667 26.1651 24.2297 25.9116 24.2492 25.8423C24.2733 25.7565 24.37 25.8201 24.553 26.042C25.0111 26.5978 25.2091 26.6549 26.7411 26.6729C28.2567 26.6908 28.6831 26.7712 29.6301 27.2176C30.7707 27.7552 31.8123 28.976 32.305 30.3524C32.4826 30.8487 32.5018 31.0906 32.5298 33.1891C32.5636 35.7247 32.5109 36.1242 32.0142 37.1083C31.6522 37.8255 30.7756 38.7418 30.339 38.8594C30.1505 38.9101 29.9967 38.96 29.9973 38.9703C29.9979 38.9805 30.0561 39.2058 30.1267 39.471C30.2915 40.0904 30.1707 40.222 29.8718 39.7485C29.7467 39.5504 29.6444 39.376 29.6444 39.3608C29.6444 39.3458 29.3076 38.7039 28.896 37.9345C28.3601 36.933 28.1747 36.5091 28.2433 36.4425C28.3113 36.3766 28.4092 36.4325 28.5803 36.6355C28.7129 36.7928 28.8463 36.9214 28.8769 36.9214C28.9073 36.9214 29.0615 36.5354 29.2195 36.0636L29.5069 35.2058L29.5096 33.3143C29.5129 31.1502 29.4421 30.8222 28.8589 30.2953C28.3347 29.8216 28.0208 29.7512 26.4332 29.7512C25.0425 29.7512 25.02 29.7543 24.5622 30.008C24.0211 30.3078 23.6087 30.8664 23.5275 31.4098C23.4975 31.6105 23.4857 32.6457 23.5015 33.7102C23.5299 35.6384 23.5308 35.6473 23.7711 36.056C24.0603 36.5478 24.4442 36.8028 25.0764 36.9227C25.7778 37.0557 26.0873 37.307 26.4292 38.0211C26.5914 38.3598 26.7683 38.8507 26.8225 39.112C26.9611 39.7813 27.0481 41.1443 26.9521 41.1443C26.9085 41.1443 26.7145 40.7385 26.521 40.2425L26.1693 39.3408L26.1424 39.8116C26.1173 40.251 26.1025 40.2785 25.9224 40.223C25.8162 40.1903 25.3731 40.0886 24.9376 39.997C23.753 39.7479 22.7065 39.1985 21.9821 38.4454C21.2976 37.7338 21.0305 37.2964 20.7019 36.3495C20.4654 35.6679 20.4567 35.5774 20.4245 33.4758C20.4025 32.0418 20.4259 31.1388 20.4934 30.8133C20.6547 30.0367 21.1554 29.1378 21.8149 28.4406C22.7315 27.4719 22.8375 27.1679 22.5082 26.4521C22.0717 25.5034 22.1185 25.4287 22.7359 26.0886ZM76.7733 26.2667C76.7985 26.2806 76.2343 27.5696 75.6833 28.757C75.4294 29.3041 75.3181 29.452 75.1037 29.5268C74.9519 29.5798 74.0729 29.6193 73.0481 29.6193C71.0718 29.6193 71.0524 29.6258 71.4845 30.1393C71.7079 30.4048 72.5795 30.9487 74.0973 31.7697C75.7611 32.6698 76.5154 33.4889 76.8566 34.766C77.2969 36.4146 76.4824 38.5954 75.1569 39.3169C74.5839 39.6288 73.992 39.7085 71.4336 39.8186C70.2481 39.8696 68.8724 39.931 68.3764 39.9551C67.6573 39.99 67.4746 39.9749 67.4746 39.8804C67.4746 39.7647 68.3725 37.4898 68.6252 36.9654C68.8219 36.5571 69.1529 36.4921 71.0625 36.4864C73.2284 36.4801 73.5784 36.3678 73.3728 35.7449C73.2476 35.3656 73.0155 35.156 72.3134 34.7886C71.521 34.3738 70.1918 33.5435 69.4399 32.9936C67.8563 31.8353 67.4232 30.1178 68.2626 28.3241C68.7969 27.1823 69.8223 26.4257 71.0168 26.2916C71.4374 26.2444 76.6915 26.2218 76.7733 26.2667ZM8.61781 31.5055V36.6575L10.4433 36.6569C12.5537 36.6564 13.124 36.5835 13.8525 36.2214C14.7978 35.7514 15.4865 34.9555 15.8298 33.9365C15.9851 33.4756 16.0109 33.1721 16.0158 31.7522C16.0229 29.6566 15.8812 28.9158 15.317 28.1007C14.8268 27.3926 14.3095 27.0559 13.3245 26.804C12.7039 26.6453 11.8877 26.5613 9.47559 26.408L8.61781 26.3535V31.5055ZM45.4803 32.7884V39.1247L43.8307 39.1008L42.1811 39.0768V33.4165V27.7562L42.3875 27.5891C42.5009 27.4973 42.7582 27.3796 42.9593 27.3275C43.1603 27.2754 43.7801 27.0598 44.3366 26.8483C44.893 26.6368 45.378 26.4611 45.4143 26.4579C45.4506 26.4547 45.4803 29.3034 45.4803 32.7884ZM41.1694 28.0797V29.6193L39.8278 29.6206C38.9253 29.6215 38.4141 29.6582 38.2662 29.7329C37.8552 29.9402 37.8366 30.157 37.8312 34.7879L37.8263 39.1208H36.151H34.4758L34.5014 34.48C34.5269 29.8805 34.5289 29.8348 34.728 29.3425C35.2239 28.116 36.0192 27.2959 37.1076 26.8886C37.7876 26.6342 38.3685 26.5632 39.8717 26.5508L41.1694 26.5401V28.0797ZM62.6751 26.8488C64.1217 27.2516 65.3349 28.2524 66.0173 29.6057C66.4929 30.5489 66.5948 31.2113 66.5948 33.3583C66.5948 35.5621 66.4871 36.2156 65.9592 37.213C65.5792 37.9308 64.5135 39.0043 63.7796 39.4085C62.6572 40.0267 61.673 40.1403 58.9188 39.9696C57.5472 39.8846 57.5757 39.9075 57.9406 39.1839C58.3625 38.3473 58.6993 37.9718 59.9086 36.9907C60.9055 36.1819 60.8259 36.228 60.7586 36.4982C60.7124 36.6836 60.7422 36.7647 60.8955 36.8721C61.1579 37.056 61.806 37.0429 62.24 36.8451C63.1043 36.4511 63.5104 35.8395 63.5137 34.9272C63.5163 34.18 63.7432 33.6929 64.3102 33.2163C65.6964 32.0516 66.2354 31.5605 66.1711 31.5207C66.1316 31.4964 65.8248 31.3995 65.4892 31.3055C64.6557 31.072 63.6231 30.6505 62.8658 30.2349C62.3232 29.9371 62.1105 29.8743 61.3573 29.7895C60.4178 29.6837 59.6139 29.7277 58.8468 29.9268C58.4881 30.0198 58.2915 30.1369 58.0583 30.3964C57.5097 31.007 57.3411 32.1949 57.6909 32.9857L57.8736 33.3985L57.6373 33.5625C57.0576 33.9649 54.6123 35.3494 54.5648 35.3021C54.5359 35.2731 54.5091 34.2499 54.5051 33.0282C54.4973 30.5861 54.5243 30.4168 55.0957 29.328C55.7518 28.0777 57.4039 26.9604 58.9441 26.7254C59.7817 26.5975 62.0413 26.6722 62.6751 26.8488ZM61.8001 30.5123C62.2626 30.5895 64.4287 31.2802 64.6635 31.4254C64.7113 31.4548 64.5219 31.6699 64.243 31.9033C63.591 32.4485 59.0124 36.2474 56.5654 38.2733C55.5251 39.1346 54.5943 39.9053 54.497 39.9859C54.3997 40.0666 53.5089 40.8078 52.5175 41.6331C51.5261 42.4584 49.5272 44.119 48.0756 45.3233C42.3991 50.0326 38.2447 53.4823 35.1172 56.0834C33.6513 57.3025 32.4163 58.2999 32.3726 58.2999C32.2819 58.2999 31.4129 55.6226 30.8838 53.7124C30.3091 51.6381 29.6139 48.7728 28.6238 44.3995C27.3164 38.625 26.6118 35.8397 25.81 33.2778C25.6447 32.7497 25.5094 32.2614 25.5094 32.1928C25.5094 31.832 25.7751 32.3004 26.4461 33.8449C26.8555 34.787 27.3637 35.9536 27.5757 36.4375C27.7876 36.9214 28.2641 38.0101 28.6346 38.8569C30.544 43.2215 31.6146 45.502 32.0236 46.0763C32.124 46.2175 32.382 46.5388 32.5968 46.7904C33.0693 47.3441 33.2703 47.8557 33.5084 49.1121C33.6332 49.7701 33.7439 50.1216 33.8642 50.2419C34.0289 50.4066 34.0552 50.4087 34.327 50.2766C34.4854 50.1996 35.0799 49.8058 35.6479 49.4015C36.2159 48.9972 37.1661 48.3276 37.7594 47.9134C38.6416 47.2975 41.8151 45.0649 44.1606 43.4099C45.5553 42.4259 46.7566 41.5811 48.3835 40.4401C49.3755 39.7446 51.0779 38.5435 52.1666 37.7712C54.1176 36.387 54.8823 35.8472 57.1373 34.2617C58.3787 33.3888 60.4395 31.762 60.4313 31.6612C60.4286 31.6269 60.1706 31.383 59.858 31.1195C59.5454 30.8558 59.3034 30.5985 59.32 30.5476C59.3884 30.3388 60.6534 30.3209 61.8001 30.5123Z" fill="#B9ADC9"/>
</g>
<defs>
<clipPath id="clip0_1757_2278">
<rect width="79" height="64" fill="white" transform="translate(0.887207)"/>
</clipPath>
</defs>
</svg>
