<svg width="155" height="64" viewBox="0 0 155 64" fill="none" xmlns="http://www.w3.org/2000/svg">
<path d="M126.319 37.3508C126.319 35.7647 126.783 34.6234 127.711 33.9352C128.639 33.2471 129.972 32.903 131.719 32.9114H132.687L132.924 27.6244C132.539 27.5657 132.154 27.5321 131.759 27.5405C129.34 27.5405 127.523 28.5056 126.329 30.4441V27.7083H120.277V41.5468H126.329V37.3508H126.319Z" fill="#B9ADC9"/>
<path d="M63.4936 36.4192C63.4936 38.1732 64.0662 39.5327 65.2015 40.5062C66.3368 41.4713 67.9657 41.958 70.0783 41.958C71.6974 41.958 73.3065 41.6055 74.7281 40.9426L73.5237 37.0822C72.8919 37.3759 72.1811 37.527 71.4604 37.5186C70.1672 37.5186 69.5255 36.9647 69.5255 35.8486V31.7029H76.3965L80.0393 41.5468H85.1531L87.7988 34.724L90.4149 41.5468H95.5484L100.652 27.7083H94.7093L92.5473 34.0695L89.7732 27.7083H85.8046L83.0306 34.0695L80.8686 27.7083H69.5255L69.5354 23.806H68.4198L61.0059 30.6287V31.7029H63.4936V36.4192Z" fill="#B9ADC9"/>
<path d="M102.715 39.8847C104.492 41.2442 106.644 41.9239 109.181 41.9239C111.718 41.9239 113.88 41.2442 115.647 39.8847C117.424 38.5252 118.313 36.7712 118.313 34.6396C118.313 32.4997 117.424 30.7457 115.647 29.3778C113.87 28.0099 111.718 27.3218 109.181 27.3218C106.644 27.3218 104.482 28.0099 102.715 29.3778C100.938 30.7457 100.059 32.4997 100.059 34.6396C100.049 36.7712 100.938 38.5252 102.715 39.8847ZM106.831 32.4577C107.434 31.8954 108.293 31.5765 109.191 31.5765C110.089 31.5765 110.938 31.8954 111.55 32.4577C112.202 33.0451 112.547 33.8256 112.518 34.6312C112.547 35.4369 112.192 36.2257 111.531 36.8048C110.928 37.3671 110.079 37.686 109.191 37.686C108.302 37.686 107.453 37.3671 106.851 36.8048C106.19 36.2257 105.834 35.4369 105.864 34.6312C105.834 33.8256 106.18 33.0451 106.831 32.4577Z" fill="#B9ADC9"/>
<path d="M52.04 41.949C53.9947 41.949 55.7026 41.5797 57.1439 40.8412C58.605 40.0859 59.7206 38.9362 60.303 37.5683L54.9128 36.662C54.3699 37.5599 53.4221 38.0047 52.04 38.0047C51.349 38.0215 50.6678 37.8201 50.1347 37.4424C49.5918 37.0228 49.2166 36.469 49.0685 35.8647H60.5301V34.908C60.5103 32.5415 59.7107 30.6784 58.141 29.3189C56.5713 27.9594 54.5377 27.288 52.04 27.288C49.5424 27.288 47.4396 27.9762 45.7318 29.3441C44.0239 30.7204 43.165 32.4743 43.1749 34.6311C43.1749 36.7627 44.0239 38.525 45.7318 39.8929C47.4298 41.2692 49.5325 41.949 52.04 41.949ZM50.2334 31.761C50.7665 31.4505 51.3984 31.2827 52.04 31.2994C53.3925 31.2994 54.281 31.8869 54.6858 33.0534H49.1376C49.3252 32.5331 49.7102 32.0799 50.2334 31.761Z" fill="#B9ADC9"/>
<path d="M4.15168 41.5467H10.2132V31.7028H15.3467V41.5467H21.3785V27.7082H10.223V27.2886C10.2033 26.9026 10.381 26.5165 10.7166 26.248C11.0918 25.9794 11.5656 25.8368 12.0592 25.8536H12.8293V21.5652H10.8647C8.87056 21.5652 7.2614 22.0603 6.01751 23.0338C4.77363 24.0073 4.15168 25.3249 4.15168 26.9697V27.7082H1.18018V31.7028H4.15168V41.5467Z" fill="#B9ADC9"/>
<path d="M140.939 36.9395H141.936L146.289 41.5467H153.812L146.744 34.2792L153.2 27.7082H146.062L141.649 32.2819H140.939V21.5652H134.897V41.5467H140.939V36.9395Z" fill="#B9ADC9"/>
<path d="M30.609 34.8247C30.609 33.8764 30.8459 33.1463 31.3297 32.6343C31.8035 32.1308 32.5242 31.8455 33.2844 31.8623C33.9162 31.8455 34.5282 32.0637 34.9429 32.4665C35.3772 32.9113 35.6043 33.4736 35.5747 34.0442V41.5215H41.6559V32.9616C41.6559 31.2245 41.0932 29.8482 39.9777 28.816C38.8621 27.7837 37.3714 27.2802 35.5253 27.2886C33.6595 27.255 31.8628 27.918 30.6189 29.1013V27.6914H24.5771V41.5383H30.6189V34.8247H30.609Z" fill="#B9ADC9"/>
</svg>
