<svg width="110" height="64" viewBox="0 0 110 64" fill="none" xmlns="http://www.w3.org/2000/svg">
<path fill-rule="evenodd" clip-rule="evenodd" d="M33.395 21.6557C31.6972 21.9213 30.374 22.9228 29.833 24.3517C29.6602 24.8083 29.4559 25.956 29.2554 27.5975C29.0847 28.9942 28.5946 32.6454 28.1663 35.7113C27.738 38.7772 27.4125 41.3275 27.4431 41.3785C27.5175 41.5027 31.4191 41.4985 31.496 41.3742C31.5291 41.3208 31.8686 39.0771 32.2505 36.3883C32.6324 33.6994 32.9756 31.3463 33.0131 31.1589L33.0815 30.8182H34.9157C36.2893 30.8182 36.7843 30.777 36.8865 30.6537C37.0353 30.4747 37.2697 29.0547 37.2736 28.3098L37.2761 27.8452H35.3432H33.4104L33.4909 27.1949C33.6657 25.7818 33.829 25.2104 34.1396 24.9225C34.5542 24.5386 35.3699 24.4322 36.6564 24.5944C37.4462 24.6939 37.7467 24.691 37.8571 24.5829C38.1006 24.3443 38.5934 22.2991 38.4436 22.1493C38.0642 21.7702 34.7407 21.4451 33.395 21.6557ZM56.5145 21.6825C56.4441 21.7677 55.8205 26.464 55.129 32.1189C54.0423 41.0036 53.8319 42.4877 53.5794 43.0421C53.1685 43.9445 52.8254 44.0945 50.9369 44.1973C50.0978 44.243 49.3519 44.3423 49.2758 44.4183C49.1113 44.5827 48.9451 45.5153 48.9348 46.3312C48.9279 46.8683 48.9558 46.9249 49.2682 47.0089C49.8734 47.1718 53.522 47.1184 54.2571 46.9358C56.354 46.4153 57.5541 45.2634 58.1485 43.2004C58.2557 42.8286 58.9325 37.8468 59.6527 32.1297C60.6995 23.8177 60.9296 21.7147 60.8012 21.6333C60.5271 21.4595 56.6621 21.504 56.5145 21.6825ZM79.9854 21.7222C79.8783 21.8294 79.7907 21.9904 79.7907 22.0802C79.7907 22.17 79.3146 26.1379 78.7328 30.8975C78.1509 35.6571 77.7056 39.7237 77.743 39.9342C77.8346 40.4476 78.2386 40.8008 79.0529 41.0793C80.4134 41.5444 81.386 41.6574 84.0049 41.6544C86.4497 41.6517 86.5823 41.6388 87.5089 41.3139C88.6911 40.8993 89.2429 40.5584 89.9165 39.8269C91.2337 38.3965 92.0719 35.3808 92.0935 31.995C92.1071 29.8441 91.7854 28.7031 90.9216 27.8398C89.7779 26.6967 87.283 26.3502 84.3948 26.9333C83.8934 27.0346 83.468 27.1 83.4494 27.0787C83.4308 27.0574 83.5659 25.8863 83.7497 24.4761C83.9533 22.9146 84.0419 21.8369 83.9763 21.7199C83.8159 21.4335 80.2722 21.4357 79.9854 21.7222ZM6.53386 21.8063C6.53225 21.8916 6.00621 26.3067 5.36477 31.618C4.72346 36.9292 4.22605 41.3191 4.2594 41.3731C4.29286 41.4272 5.29202 41.4715 6.4797 41.4715C8.6167 41.4715 8.63976 41.4686 8.70595 41.1927C8.85927 40.5525 11.1174 21.8668 11.0538 21.7638C11.0155 21.702 9.98362 21.6515 8.76049 21.6515C7.06561 21.6515 6.53597 21.6883 6.53386 21.8063ZM44.2792 26.7391C42.5291 26.978 41.0954 27.6386 40.1428 28.6452C39.1454 29.6993 38.5973 31.0299 38.2273 33.2957C37.6732 36.6884 37.9323 38.8641 39.0472 40.181C39.5151 40.7339 40.6961 41.317 41.8174 41.5489C43.2952 41.8543 46.1726 41.7349 47.4702 41.314C50.0884 40.4648 51.3856 38.6877 51.9548 35.1707C52.5458 31.5187 52.2322 29.2667 50.9708 28.1046C50.3018 27.4883 49.6438 27.1513 48.6523 26.9168C47.6483 26.6794 45.3891 26.5877 44.2792 26.7391ZM68.0775 26.7391C65.7134 27.0617 63.8778 28.2092 63.0223 29.8994C62.2607 31.4039 61.7946 33.7576 61.7735 36.2068C61.7521 38.6926 62.2886 39.9939 63.6773 40.8248C64.8916 41.5515 65.4524 41.6581 68.0155 41.6501C70.1405 41.6435 70.379 41.6195 71.2684 41.3228C73.9012 40.4449 75.1277 38.7549 75.7455 35.1538C76.1798 32.6221 76.1141 30.4844 75.5625 29.2031C75.0942 28.1153 73.9435 27.2698 72.4505 26.9168C71.4465 26.6794 69.1873 26.5877 68.0775 26.7391ZM99.9324 26.7445C96.7891 26.9967 95.1175 28.3404 94.6585 30.9836C94.3983 32.482 94.7327 33.762 95.5781 34.5037C96.2071 35.0556 96.722 35.2553 98.3863 35.5926C99.172 35.7518 99.9612 35.9377 100.14 36.0056C100.599 36.1801 100.862 36.6133 100.862 37.1944C100.861 37.8455 100.512 38.3984 99.916 38.6942C99.2136 39.0426 97.1317 39.0166 95.4435 38.6384C94.7471 38.4824 94.1225 38.3885 94.0557 38.4298C93.8671 38.5463 93.2519 40.5454 93.3368 40.7664C93.4939 41.1755 95.571 41.5899 97.8872 41.6741C100.526 41.7702 102.087 41.4135 103.397 40.415C104.445 39.6158 105.125 38.0394 105.133 36.3926C105.138 35.1821 104.959 34.5678 104.424 33.9584C103.876 33.3356 103.091 32.988 101.544 32.6835C99.8445 32.3492 99.5193 32.2434 99.1631 31.9091C98.6017 31.3819 98.8814 30.1521 99.6556 29.7441C100.247 29.4323 102.024 29.3836 103.629 29.6351C104.356 29.7491 105.007 29.8084 105.074 29.7669C105.141 29.7254 105.344 29.2161 105.525 28.6353C105.806 27.7362 105.829 27.5549 105.683 27.4153C105.449 27.1928 103.925 26.8654 102.752 26.7857C102.224 26.7498 101.624 26.7057 101.42 26.6877C101.215 26.6697 100.546 26.6952 99.9324 26.7445ZM18.8656 26.852C15.3597 27.2233 13.3058 27.8717 13.054 28.6868C12.9677 28.9662 11.4947 40.7423 11.4947 41.153V41.4715H13.5315C15.3626 41.4715 15.5752 41.4495 15.6366 41.2547C15.6742 41.1354 16.0106 38.562 16.3842 35.536C16.7579 32.51 17.1075 29.994 17.161 29.9448C17.3314 29.7882 18.8569 29.5795 19.8309 29.5795C20.6596 29.5795 20.8168 29.6173 21.149 29.8966C21.3672 30.0802 21.5582 30.3845 21.6022 30.619C21.6446 30.8447 21.3967 33.2842 21.0426 36.126C20.6929 38.932 20.4408 41.2827 20.4822 41.3497C20.6007 41.5412 24.5033 41.5096 24.5731 41.3166C24.7243 40.8985 25.8728 31.0791 25.8728 30.2053C25.8728 28.3697 25.2072 27.4926 23.4558 27.0201C22.6657 26.8069 20.1581 26.7151 18.8656 26.852ZM47.1255 29.7509C47.7789 30.1788 47.9347 30.6287 47.9352 32.0888C47.9357 33.4654 47.6981 35.4056 47.3704 36.7023C46.9645 38.3078 46.1864 38.912 44.5191 38.9168C43.3452 38.9201 42.8002 38.6793 42.4418 37.9987C41.9929 37.1461 42.4176 32.3823 43.0725 30.926C43.5632 29.8349 44.3543 29.427 45.8492 29.4945C46.4796 29.5229 46.9091 29.6092 47.1255 29.7509ZM70.9237 29.7509C71.1032 29.8685 71.3629 30.1427 71.5007 30.3604C71.7309 30.724 71.7464 30.9028 71.6905 32.5525C71.6287 34.3742 71.382 36.0825 71.0306 37.1213C70.5835 38.4427 69.8727 38.9137 68.3254 38.9143C67.1783 38.9148 66.6553 38.7053 66.2668 38.0898C66.0378 37.7268 66.0213 37.5413 66.0727 35.8971C66.1327 33.9805 66.4089 32.1422 66.7905 31.1197C67.0648 30.3845 67.5501 29.8781 68.2184 29.6296C68.867 29.3885 70.4807 29.4608 70.9237 29.7509ZM86.7807 29.6202C87.5582 29.8548 87.7654 30.253 87.8257 31.6277C87.8842 32.966 87.5842 35.3824 87.2034 36.6403C86.7367 38.1825 86.1154 38.7586 84.7486 38.9173C84.0925 38.9935 82.2017 38.8435 82.0623 38.7041C82.0018 38.6436 83.0048 29.9486 83.0837 29.8482C83.1015 29.8256 83.5253 29.7331 84.0253 29.6425C85.1544 29.4381 86.1503 29.4301 86.7807 29.6202Z" fill="#B9ADC9"/>
</svg>
