<svg width="139" height="64" viewBox="0 0 139 64" fill="none" xmlns="http://www.w3.org/2000/svg">
<g clip-path="url(#clip0_1757_2283)">
<path d="M129.815 26.1466C129.644 26.1488 129.475 26.1186 129.315 26.0578C129.168 26.0021 129.035 25.9153 128.925 25.8034C128.811 25.6894 128.723 25.5526 128.667 25.402C128.606 25.2309 128.576 25.0504 128.578 24.8688C128.576 24.6872 128.608 24.5067 128.673 24.3371C128.731 24.1882 128.819 24.0528 128.931 23.9397C129.044 23.8265 129.179 23.738 129.327 23.6798C129.481 23.62 129.644 23.5898 129.809 23.591C129.981 23.5892 130.153 23.6193 130.314 23.6798C130.461 23.735 130.593 23.8218 130.702 23.9342C130.817 24.0485 130.907 24.1858 130.965 24.3371C131.026 24.5078 131.055 24.6878 131.053 24.8688C131.056 25.0509 131.024 25.2318 130.959 25.402C130.9 25.5525 130.81 25.6891 130.696 25.8034C130.582 25.9181 130.445 26.0073 130.294 26.0654C130.141 26.1228 129.978 26.1504 129.815 26.1466ZM129.815 25.8693C129.937 25.8727 130.059 25.851 130.172 25.8057C130.286 25.7604 130.389 25.6924 130.475 25.6058C130.565 25.5059 130.635 25.3889 130.679 25.2618C130.723 25.1347 130.741 25 130.732 24.8657C130.741 24.7317 130.723 24.5973 130.679 24.4704C130.634 24.3436 130.565 24.2269 130.475 24.1272C130.388 24.0402 130.284 23.972 130.169 23.9272C130.054 23.8824 129.932 23.8618 129.809 23.8668C129.687 23.8616 129.565 23.8821 129.451 23.9269C129.338 23.9718 129.235 24.0401 129.15 24.1272C128.972 24.3305 128.881 24.596 128.898 24.8657C128.881 25.136 128.971 25.4021 129.15 25.6058C129.235 25.6932 129.338 25.7618 129.451 25.8072C129.565 25.8526 129.686 25.8737 129.809 25.8693H129.815ZM129.355 24.236H129.815C129.905 24.233 129.995 24.2444 130.081 24.2697C130.137 24.2869 130.189 24.315 130.235 24.3525C130.271 24.3837 130.297 24.4246 130.311 24.4704C130.325 24.5156 130.332 24.5626 130.333 24.6099C130.335 24.6824 130.32 24.7546 130.288 24.8198C130.252 24.8773 130.198 24.9218 130.135 24.947L130.395 25.4556H130.089L129.865 25.0052H129.64V25.4526H129.363L129.355 24.236ZM129.845 24.7692C129.948 24.7692 130.009 24.7539 130.029 24.7217C130.049 24.6877 130.059 24.6491 130.058 24.6099C130.058 24.5916 130.055 24.5735 130.047 24.5567C130.04 24.5399 130.03 24.5246 130.017 24.5118C129.955 24.4729 129.882 24.4572 129.81 24.4674H129.632V24.7738L129.845 24.7692ZM126.039 24.8397C124.94 23.9204 123.361 23.4607 121.302 23.4607H114.436L113.748 26.7151L113.261 29.0133L109.055 29.0317L108.28 23.4607H102.7L99.6356 28.9903L93.3016 28.9766L93.5988 27.5838H97.6866L99.9972 23.4607H84.3874L84.1775 24.4321C82.9375 23.4781 81.2107 23.0011 78.9972 23.0011C77.4252 23.0011 76.0611 23.2462 74.9048 23.7365C74.5624 23.8808 74.232 24.0519 73.9166 24.2483L74.7347 23.4607H69.2863L62.5969 29.8667L63.9406 23.4607H59.076L56.6551 34.9336H51.8778C51.6255 35.9142 51.2369 36.6405 50.7118 37.1124C50.1868 37.5843 49.5122 37.8208 48.6878 37.8218C46.6603 37.8218 45.6465 36.4704 45.6465 33.7677C45.6275 32.5884 45.8276 31.4158 46.2364 30.3095C46.6245 29.3044 47.148 28.5317 47.8069 27.9914C48.4299 27.4646 49.2203 27.1772 50.0362 27.1809C51.6235 27.1809 52.4917 28.1185 52.6408 29.9939L57.481 29.3596C57.3615 27.3831 56.673 25.8295 55.4156 24.6987C54.1582 23.568 52.481 23.0021 50.384 23.0011C48.4585 23.0011 46.7481 23.4822 45.2527 24.4444C43.7611 25.4041 42.5605 26.7537 41.7808 28.3468C41.5924 28.7268 41.4257 29.1171 41.2813 29.5159C41.1619 28.5375 40.8682 27.5884 40.4141 26.7135C39.8045 25.5409 38.855 24.5796 37.6899 23.9556C36.5204 23.3193 35.1414 23.0011 33.5531 23.0011C31.6922 22.9728 29.8641 23.4923 28.2962 24.495C26.9111 25.383 25.7674 26.5999 24.9668 28.0373C24.8279 26.688 24.2931 25.6221 23.3626 24.8397C22.2686 23.9204 20.689 23.4607 18.6236 23.4607H11.7626L7.93213 41.5403H12.5685L13.8861 35.3075H16.5965L18.3953 41.5403H23.3105L20.9295 34.5291C21.9196 34.162 22.8089 33.5661 23.525 32.7901C23.4913 33.1778 23.4699 33.57 23.4699 33.9714C23.4699 35.6435 23.7906 37.0833 24.4321 38.2906C25.0422 39.4629 25.9915 40.4241 27.1563 41.0485C28.3299 41.6818 29.7089 41.9985 31.2931 41.9985C33.1547 42.0268 34.9834 41.5067 36.5515 40.5031C38.0816 39.524 39.3162 38.1469 40.123 36.5194C40.3147 36.1359 40.4851 35.742 40.6332 35.3397C40.8549 37.2161 41.5081 38.7212 42.5929 39.855C43.9524 41.285 45.8564 42 48.3048 42C50.6204 42 52.5336 41.379 54.0443 40.1369C54.9381 39.4 55.6496 38.4666 56.1235 37.4096L55.2501 41.5465H60.1148L61.3053 35.9985L63.6863 33.7937L66.4227 41.5403H71.5662L70.7618 39.4459C71.3764 40.2511 72.1946 40.8778 73.1321 41.2615C74.272 41.7518 75.6443 41.9969 77.249 41.9969C79.6637 41.9969 81.5764 41.4351 82.987 40.3116C84.3976 39.188 85.1029 37.6635 85.1029 35.738C85.1029 34.3356 84.6974 33.2212 83.8864 32.3948C83.0754 31.5685 81.7986 30.9602 80.056 30.57L78.0549 30.1104C77.4421 29.9735 76.9901 29.7748 76.699 29.5143C76.554 29.3865 76.4391 29.2282 76.3626 29.0507C76.286 28.8732 76.2497 28.681 76.2562 28.4878C76.2518 28.249 76.3095 28.0132 76.4237 27.8035C76.5378 27.5937 76.7045 27.4172 76.9073 27.2912C77.3374 27.0031 77.9502 26.8591 78.746 26.8591C79.5917 26.8591 80.2291 27.0338 80.6596 27.3785C81.0902 27.7232 81.3644 28.2871 81.4824 29.0639L86.2199 28.5322C86.1949 28.2171 86.1499 27.9039 86.085 27.5945H88.7127L85.7449 41.5403H90.6095L93.0059 30.3555L97.0064 33.7263L92.6688 41.5495H97.6085L98.0681 40.6747L102.841 37.9872L105.599 40.2411L105.721 41.5526H115.247L116.563 35.3136H119.275L121.074 41.5403H125.989L123.611 34.5291C124.91 34.0184 125.915 33.2666 126.626 32.2738C127.342 31.2504 127.713 30.0258 127.687 28.7774C127.687 27.0716 127.137 25.759 126.039 24.8397ZM19.4724 30.9301C18.9617 31.3387 18.2145 31.5429 17.2309 31.5429H14.6967L15.616 27.2115H17.8391C19.4428 27.2115 20.2452 27.8616 20.2462 29.1619C20.2462 29.9362 19.9883 30.5256 19.4724 30.9301ZM35.6813 34.592C35.2614 35.6134 34.694 36.4071 33.979 36.973C33.3089 37.5254 32.4665 37.8257 31.598 37.8218C30.6174 37.8218 29.8616 37.4842 29.3304 36.809C28.7993 36.1338 28.5332 35.1711 28.5322 33.9209C28.5104 32.7209 28.726 31.5286 29.1665 30.4122C29.5883 29.3908 30.1537 28.5966 30.8626 28.0297C31.533 27.4778 32.3752 27.1776 33.2436 27.1809C34.2242 27.1809 34.9805 27.519 35.5127 28.1952C36.0449 28.8713 36.3105 29.8341 36.3094 31.0833C36.3324 32.2827 36.1189 33.475 35.6813 34.592ZM76.4891 34.1492L78.389 34.5797C79.0018 34.7145 79.4533 34.9188 79.7434 35.1926C79.8904 35.3268 80.0062 35.4915 80.083 35.6752C80.1597 35.8588 80.1955 36.057 80.1877 36.2559C80.1984 36.5246 80.1392 36.7915 80.016 37.0305C79.8927 37.2695 79.7096 37.4724 79.4845 37.6195C79.0115 37.9413 78.3527 38.1017 77.508 38.1006C76.5621 38.1006 75.819 37.8851 75.2787 37.4541C74.7378 37.0235 74.4436 36.403 74.3915 35.5925H69.5468C69.554 35.8846 69.5765 36.1761 69.6142 36.4658L67.3604 30.6022L72.1699 25.9413C71.6125 26.8278 71.326 27.8576 71.3456 28.9045C71.3456 30.2712 71.7679 31.3902 72.6127 32.2615C73.4574 33.1328 74.7495 33.762 76.4891 34.1492ZM103.276 34.952L99.4456 37.1231L101.349 33.3187L98.3302 30.7615H102.662L104.843 26.5573L105.395 30.7631L110.033 30.7937L105.743 33.3984L106.279 37.4847L103.276 34.952ZM110.718 41.0424L109.765 34.166L112.543 32.4132L110.718 41.0424ZM122.151 30.9377C121.64 31.3463 120.892 31.5506 119.908 31.5506H117.375L118.294 27.2192H120.516C122.122 27.2192 122.924 27.8693 122.923 29.1696C122.923 29.9388 122.666 30.5256 122.151 30.9301V30.9377Z" fill="#B9ADC9"/>
</g>
<defs>
<clipPath id="clip0_1757_2283">
<rect width="123.121" height="19" fill="white" transform="translate(7.93213 23)"/>
</clipPath>
</defs>
</svg>
