<svg width="122" height="64" viewBox="0 0 122 64" fill="none" xmlns="http://www.w3.org/2000/svg">
<g clip-path="url(#clip0_1757_2274)">
<path fill-rule="evenodd" clip-rule="evenodd" d="M66.016 31.5583C66.016 31.5583 64.8973 30.8666 64.2055 30.5989C64.2055 30.5989 62.0643 29.6065 61.6395 29.1343C61.6395 29.1343 60.805 28.3479 61.2936 27.4344C61.2936 27.4344 61.4981 26.8367 62.38 26.8367C62.38 26.8367 63.5282 26.8998 63.5282 27.8434V29.1745H67.6427L67.6355 27.2141C67.6355 27.2141 67.952 24.0037 62.7891 23.8623C62.7891 23.8623 58.7283 23.5954 57.5637 25.7826C57.5637 25.7826 57.1066 26.2705 57.1066 27.9697V29.1975C57.1066 29.1975 57.06 30.614 57.7833 31.5267C57.7833 31.5267 58.1923 32.1252 59.1998 32.7854C59.1998 32.7854 61.2456 33.8868 62.4733 34.5176C62.4733 34.5176 63.7126 35.2251 63.5497 36.351C63.5497 36.351 63.4485 37.507 62.2516 37.4596C62.2516 37.4596 61.1573 37.4108 61.1573 36.2771V34.9467H56.7729V36.8791C56.7729 36.8791 56.6502 40.5746 62.2839 40.5746C62.2839 40.5746 67.6671 40.6837 67.9183 36.7822V35.2086C67.9175 35.2086 68.1084 32.8176 66.016 31.5583ZM44.9509 24.3223L43.5732 32.9561H43.251L41.935 24.3998H35.062L34.7176 40.035H38.787L38.8358 28.2546H39.1558L41.3128 40.0328H45.5939L47.7243 28.2589H48.0078L48.1061 40.035H52.197L51.7564 24.3223H44.9509ZM20.7271 24.3876L18.0197 40.0171H22.4005L24.0043 27.8987H24.3645L25.9675 40.0171H30.3476L27.6409 24.3876H20.7271ZM112.65 31.343V33.6486H113.773V36.1235C113.773 37.3333 112.739 37.3556 112.739 37.3556C111.482 37.3556 111.529 36.206 111.529 36.206V27.6454C111.529 26.7635 112.645 26.7161 112.645 26.7161C113.716 26.7161 113.723 27.7681 113.723 27.7681V29.0698H117.848C117.983 26.5288 117.476 25.9139 117.476 25.9139C116.453 23.6162 112.582 23.7418 112.582 23.7418C106.634 23.7418 107.294 28.3056 107.294 28.3056V36.5827C107.422 40.8631 113.283 40.4282 113.382 40.4246C115.989 40.1362 116.776 39.3074 116.776 39.3074C117.501 38.7692 117.688 38.0236 117.688 38.0236C117.895 37.5895 117.947 36.206 117.947 36.206V31.343H112.65ZM98.9777 33.8868H98.7983L94.6127 24.3266H89.6047V40.0364H93.6805L93.4366 30.4776H93.6188L97.9551 40.0364H102.811V24.3252H98.6835L98.9777 33.8868ZM79.6556 36.1221C79.6556 36.1221 79.7144 37.4115 78.519 37.4115C78.519 37.4115 77.2618 37.479 77.2618 36.1544L77.2489 24.3359H72.7784V36.0604C72.7784 36.0604 72.3199 40.4978 78.5821 40.4978C78.5821 40.4978 84.0242 40.5624 84.0242 36.2641V24.3367H79.6556V36.1221ZM12.2045 31.5583C12.2045 31.5583 11.0872 30.8666 10.3948 30.5996C10.3948 30.5996 8.25497 29.6079 7.83017 29.1351C7.83017 29.1351 6.99563 28.3472 7.48502 27.4358C7.48502 27.4358 7.68881 26.8381 8.56999 26.8381C8.56999 26.8381 9.71882 26.9005 9.71882 27.8441V29.1752H13.8348L13.8269 27.2141C13.8269 27.2141 14.1412 24.0037 8.98044 23.8631C8.98044 23.8631 8.59151 23.8379 8.02104 23.8666C8.02104 23.8666 4.89458 24.0346 3.7766 25.7496C3.77015 25.7625 3.76082 25.7718 3.75436 25.7833C3.75436 25.7833 3.29798 26.2705 3.29798 27.9704V29.1982C3.29798 29.1982 3.25062 30.6147 3.97465 31.5275C3.97465 31.5275 4.38367 32.1259 5.39114 32.7861C5.39114 32.7861 7.43622 33.8875 8.66399 34.5183C8.66399 34.5183 9.90467 35.2244 9.74035 36.3517C9.74035 36.3517 9.63917 37.5077 8.44298 37.4603C8.44298 37.4603 7.34868 37.4115 7.34868 36.2778V34.9467H2.96359V36.8805C2.96359 36.8805 2.84089 40.576 8.47455 40.576C8.47455 40.576 13.8563 40.6851 14.1096 36.7837V35.2115C14.1096 35.21 14.2977 32.8176 12.2045 31.5583Z" fill="#B9ADC9"/>
</g>
<defs>
<clipPath id="clip0_1757_2274">
<rect width="121" height="64" fill="white" transform="translate(0.13916)"/>
</clipPath>
</defs>
</svg>
