<svg width="126" height="64" viewBox="0 0 126 64" fill="none" xmlns="http://www.w3.org/2000/svg">
<g clip-path="url(#clip0_1800_2410)">
<path fill-rule="evenodd" clip-rule="evenodd" d="M69.4278 21.0732C68.9319 21.2384 68.2286 21.8392 67.9311 22.352C67.165 23.6724 67.7207 25.4587 69.1195 26.1719C71.3368 27.3024 73.8204 25.0447 72.9416 22.6975C72.4309 21.3332 70.8464 20.6008 69.4278 21.0732ZM121.844 21.1962C121.181 21.4577 120.527 22.1265 120.271 22.8034C119.526 24.7784 121.261 26.878 123.327 26.5005C125.98 26.0159 126.486 22.5239 124.082 21.2967C123.452 20.975 122.511 20.9328 121.844 21.1962ZM123.837 21.8483C125.072 22.4631 125.405 24.1231 124.507 25.1888C123.232 26.7038 120.702 25.7923 120.692 23.8144C120.684 22.1588 122.359 21.112 123.837 21.8483ZM28.7919 31.4081V41.0235H31.2409H33.69L33.6677 31.4314L33.6455 21.8393L31.2187 21.8161L28.7919 21.7928V31.4081ZM121.753 23.7621V25.2916H122.059H122.365V24.7235V24.1554H122.623C122.85 24.1554 122.915 24.2206 123.169 24.7017C123.438 25.2087 123.482 25.2498 123.786 25.275C123.967 25.2899 124.114 25.2718 124.114 25.2348C124.114 25.1977 123.989 24.9249 123.835 24.6284L123.555 24.0893L123.8 23.8791C123.982 23.7222 124.056 23.5651 124.09 23.259C124.133 22.879 124.114 22.8267 123.828 22.5409L123.52 22.2326H122.636H121.753V23.7621ZM123.246 22.8475C123.354 22.9053 123.415 23.0303 123.415 23.194C123.415 23.5048 123.214 23.631 122.721 23.631H122.365V23.194V22.757H122.721C122.916 22.757 123.153 22.7977 123.246 22.8475ZM3.75844 26.2316L0.370117 29.6186V30.1645V30.7104H1.93839H3.50666L3.53762 33.8786L3.56867 37.0468L3.79971 37.6879C4.13448 38.6166 4.52792 39.2166 5.23917 39.8827C5.95173 40.5502 6.8454 41.0321 7.77632 41.2509C8.79784 41.491 10.9019 41.3274 11.8044 40.9374C11.9974 40.854 12.0012 40.8241 12.0012 39.3638V37.875L11.6295 37.9416C10.5115 38.1419 9.5327 37.8934 9.02775 37.2812C8.50558 36.6481 8.47331 36.4386 8.43623 33.4416L8.40247 30.7104H10.2019H12.0012V29.2355V27.7606L11.7279 27.706C11.5776 27.6759 10.7708 27.6514 9.93515 27.6514H8.41568V25.2479V22.8444H7.78122H7.14675L3.75844 26.2316ZM19.4442 27.3067C16.3346 27.6157 13.8009 29.8516 13.1891 32.8261C13.0184 33.6568 13.0124 35.1045 13.1768 35.8794C13.6457 38.0905 15.1507 39.8845 17.2465 40.7305C18.3689 41.1836 19.0436 41.3079 20.4403 41.319C21.9369 41.3308 22.5648 41.2117 23.8072 40.6806C24.9061 40.2107 26.3433 39.1895 26.3433 38.8785C26.3433 38.7503 24.7854 36.904 24.6368 36.8561C24.588 36.8404 24.3142 37.0024 24.0284 37.2161C23.1819 37.8488 22.0161 38.1323 20.9564 37.9631C20.1578 37.8356 19.705 37.6238 19.1779 37.131C18.7192 36.7023 18.3852 36.0208 18.3852 35.514V35.2551H22.5777C25.8373 35.2551 26.7853 35.2308 26.838 35.1459C26.8753 35.0858 26.9051 34.545 26.9043 33.9441C26.9032 33.0768 26.8621 32.7076 26.705 32.1524C26.1596 30.2255 24.9932 28.8129 23.2388 27.9548C22.0266 27.362 20.8719 27.1647 19.4442 27.3067ZM41.866 27.3027C39.9352 27.5157 38.1634 28.4488 37.0092 29.8604C36.4802 30.5073 35.865 31.7391 35.6462 32.5894C35.4046 33.5286 35.4246 35.3427 35.6867 36.2591C36.2 38.0535 37.1587 39.3076 38.7614 40.2806C40.4229 41.2893 43.0025 41.6334 45.0142 41.1147C46.2579 40.794 47.7621 39.9696 48.5016 39.2033L48.8409 38.8519L47.9443 37.8029L47.0478 36.7538L46.5995 37.1102C45.9955 37.5903 45.4032 37.8496 44.6426 37.9673C42.7139 38.2656 41.0607 37.2563 40.8081 35.6266L40.7504 35.2551H44.9621C48.8909 35.2551 49.1779 35.2448 49.2365 35.1022C49.2711 35.018 49.2952 34.4183 49.2901 33.7693C49.2822 32.7444 49.2506 32.4976 49.0501 31.8902C48.0263 28.7883 45.1348 26.942 41.866 27.3027ZM58.2875 27.3077C56.9443 27.4376 55.5948 27.9162 54.7466 28.5635L54.3424 28.8719L53.4203 28.1305L52.4982 27.3892H51.8826H51.267V36.9594V46.5296H53.672H56.0769V43.8544V41.1791L56.4048 41.2307C56.5852 41.2591 57.3231 41.3072 58.0446 41.3378C59.0591 41.3807 59.5388 41.3615 60.1615 41.2527C63.718 40.6317 66.0464 37.8656 66.0464 34.2614C66.0464 30.5589 63.5903 27.7105 60.0481 27.305C59.6195 27.256 59.2099 27.2208 59.1377 27.227C59.0656 27.2332 58.683 27.2694 58.2875 27.3077ZM108.242 27.3037C106.694 27.47 105.167 28.2122 104.166 29.2858C101.375 32.277 101.682 37.2666 104.812 39.799C105.49 40.3483 106.531 40.8623 107.5 41.1267C108.16 41.307 108.426 41.3287 109.903 41.3232C111.103 41.3187 111.76 41.2761 112.265 41.1702C112.804 41.0571 113.43 41.0235 114.998 41.0235H117.031V34.2063V27.3892H116.428H115.825L114.899 28.1331L113.974 28.8771L113.564 28.5644C112.303 27.6023 110.169 27.0967 108.242 27.3037ZM67.9703 29.9531C67.9703 31.2671 67.9442 34.2955 67.9123 36.6829L67.8543 41.0235H70.3173H72.7802V34.2937V27.564H70.3753H67.9703V29.9531ZM75.2872 27.6223C75.2551 27.6543 75.2288 28.3425 75.2288 29.1518V30.623H77.8104H80.3921L80.2035 30.9944C79.9907 31.4139 75.5492 39.635 75.0805 40.4772L74.7765 41.0235H81.0368H87.2972V39.5827V38.142L84.8168 38.1187L82.3363 38.0956L85.1211 32.939C86.6528 30.1029 87.9067 27.7334 87.9077 27.6732C87.909 27.5868 86.5955 27.564 81.6274 27.564C78.1723 27.564 75.3192 27.5902 75.2872 27.6223ZM89.2211 29.1372V30.623H91.8009C93.2198 30.623 94.3808 30.6397 94.3808 30.6604C94.3808 30.6993 89.4861 39.7609 89.0309 40.5646L88.771 41.0235H95.0303H101.289V39.5827V38.142L98.8128 38.1187L96.3363 38.0956L98.7501 33.6382C100.078 31.1867 101.35 28.8368 101.577 28.4161L101.99 27.6514H95.6055H89.2211V29.1372ZM21.5314 30.6233C22.0499 30.89 22.4842 31.4604 22.6751 32.1255L22.7455 32.3709H20.6469H18.5483L18.606 32.1743C18.735 31.7349 19.0388 31.1992 19.3162 30.9219C19.861 30.3774 20.8057 30.25 21.5314 30.6233ZM43.9946 30.642C44.2044 30.7409 44.4858 30.975 44.6239 31.1656C44.8863 31.5277 45.2013 32.2568 45.1273 32.3308C45.1034 32.3547 44.1553 32.3636 43.0203 32.3507L40.9567 32.3272L41.1659 31.8127C41.6815 30.545 42.8037 30.0806 43.9946 30.642ZM59.1963 30.5444C59.5885 30.6682 60.1313 31.2941 60.3478 31.8723C60.7271 32.8855 60.8195 34.3919 60.575 35.575C60.2047 37.3665 59.2835 38.3112 57.9045 38.3132C57.2638 38.3142 56.8988 38.2139 56.3936 37.8979L56.0542 37.6859L56.1005 35.3124C56.1505 32.7454 56.2163 32.3003 56.6678 31.4712C57.1727 30.544 58.1085 30.2011 59.1963 30.5444ZM110.833 30.6287C111.251 30.8419 111.658 31.3413 111.866 31.8975C112.132 32.6075 112.221 33.5566 112.221 35.6925V37.6904L111.964 37.873C111.264 38.3716 110.114 38.4671 109.356 38.0897C108.17 37.4993 107.508 35.8497 107.622 33.7693C107.702 32.2959 108.025 31.3841 108.656 30.8443C109.236 30.3479 110.112 30.2612 110.833 30.6287Z" fill="#B9ADC9"/>
</g>
<defs>
<clipPath id="clip0_1800_2410">
<rect width="125.694" height="64" fill="white" transform="translate(0.13916)"/>
</clipPath>
</defs>
</svg>
